<?xml version="1.0" encoding="utf-8"?>
<!-- Generator: Adobe Illustrator 18.0.0, SVG Export Plug-In . SVG Version: 6.00 Build 0)  -->
<!DOCTYPE svg PUBLIC "-//W3C//DTD SVG 1.1//EN" "http://www.w3.org/Graphics/SVG/1.1/DTD/svg11.dtd">
<svg version="1.1" id="Layer_1" xmlns="http://www.w3.org/2000/svg" xmlns:xlink="http://www.w3.org/1999/xlink" x="0px" y="0px"
	 viewBox="0 0 40.2 11.2" enable-background="new 0 0 40.2 11.2" xml:space="preserve">
<g>
	<g>
		<path fill="#666666" d="M2.1,8.5V1.7h-1v7.7h4.3v-1H2.1z"/>
		<path fill="#666666" d="M11.2,6.8c0-0.9-0.2-1.6-0.7-2.1C10,4.2,9.4,3.9,8.6,3.9c-0.8,0-1.4,0.3-1.9,0.8C6.2,5.3,6,6,6,6.8
			c0,0.8,0.3,1.5,0.8,2c0.5,0.5,1.1,0.8,1.9,0.8c0.5,0,1-0.1,1.4-0.4c0.4-0.3,0.8-0.6,1-1l-0.9-0.4c-0.4,0.6-0.9,1-1.5,1
			c-0.5,0-0.9-0.2-1.2-0.5C7.2,7.9,7,7.5,7,6.9h4.2L11.2,6.8z M7.1,6.1c0.1-0.4,0.3-0.7,0.5-0.9c0.3-0.2,0.6-0.3,1-0.3
			C9,4.9,9.4,5,9.7,5.2c0.3,0.2,0.4,0.5,0.4,0.9H7.1z"/>
		<path fill="#666666" d="M14.6,8.5c-0.1,0-0.1,0.1-0.2,0.1c-0.1,0-0.2,0-0.2,0c-0.2,0-0.3-0.1-0.5-0.2c-0.1-0.1-0.2-0.4-0.2-0.7V5
			h1.3V4.1h-1.3V2.5h-1v1.6h-0.9V5h0.9v3c0,0.5,0.2,0.8,0.4,1.1c0.3,0.3,0.6,0.4,1.1,0.4c0.3,0,0.6,0,0.9-0.1L14.6,8.5z"/>
		<path fill="#666666" d="M16.9,1.7c-0.1-0.1-0.3-0.2-0.5-0.2c-0.2,0-0.4,0.1-0.5,0.2c-0.1,0.1-0.2,0.3-0.2,0.5
			c0,0.2,0.1,0.3,0.2,0.4c0.1,0.1,0.2,0.2,0.4,0.2l-0.5,0.8L16.1,4l0.8-1.1c0.2-0.2,0.2-0.5,0.2-0.7C17.1,2,17.1,1.9,16.9,1.7z"/>
		<path fill="#666666" d="M20.2,6.4l-0.8-0.2c-0.6-0.1-0.9-0.3-0.9-0.6c0-0.2,0.1-0.3,0.3-0.5c0.2-0.1,0.4-0.2,0.7-0.2
			c0.3,0,0.5,0.1,0.8,0.2c0.2,0.1,0.4,0.3,0.5,0.5l0.9-0.4c-0.2-0.4-0.4-0.7-0.8-0.9c-0.4-0.2-0.8-0.3-1.3-0.3
			c-0.6,0-1.1,0.1-1.5,0.4c-0.4,0.3-0.6,0.7-0.6,1.2c0,0.7,0.5,1.2,1.5,1.5L20,7.3c0.5,0.2,0.8,0.4,0.8,0.7c0,0.2-0.1,0.3-0.3,0.5
			c-0.2,0.1-0.5,0.2-0.8,0.2c-0.3,0-0.6-0.1-0.8-0.3c-0.2-0.2-0.4-0.4-0.6-0.7l-0.9,0.4c0.2,0.5,0.5,0.8,0.9,1.1
			c0.4,0.3,0.9,0.4,1.4,0.4c0.6,0,1.1-0.2,1.5-0.5c0.4-0.3,0.6-0.7,0.6-1.2C21.8,7.1,21.2,6.6,20.2,6.4z"/>
		<path fill="#666666" d="M30.2,7l-1.8-4.8l-0.2-0.5h-0.9l-0.2,0.1l-2.9,7.6h1.1l0.8-2.1h3.2L30,9.4h1.1L30.2,7z M26.4,6.4l1.3-3.5
			h0L29,6.4H26.4z"/>
		<path fill="#666666" d="M34.1,8.4L35.2,8l0,0l-3.1-2.2l0,0c0.5-0.3,0.8-0.7,1-1.2c0.2-0.5,0.2-1,0-1.5c-0.2-0.6-0.6-1-1.2-1.3
			c-0.6-0.3-1.2-0.3-1.8-0.1l-1.6,0.6l-0.8,0.3l1.7,4.8l0.9,2.4l0.9-0.3l0,0L30.2,7l-0.2-0.5l1-0.4L34.1,8.4z M29.7,5.6L28.8,3
			l1.6-0.6c0.4-0.1,0.7-0.1,1.1,0c0.3,0.2,0.6,0.4,0.7,0.8c0.1,0.4,0.1,0.7-0.1,1.1c-0.2,0.3-0.5,0.6-0.8,0.7L29.7,5.6z"/>
		<path fill="#666666" d="M39.2,1.3l-5.3,0l0,1l2.2,0l0,6.8l1,0l0-6.8l2.2,0V1.3z"/>
		<polyline fill="#666666" points="26.7,1.9 27.1,1.8 27.3,1.7 29.7,0.8 		"/>
	</g>
</g>
</svg>
